<svg width="27" height="26" viewBox="0 0 27 26" fill="none" xmlns="http://www.w3.org/2000/svg">
<path d="M3.57092 0.5L0 7.64183H16.1311L20.607 0.5H3.57092Z" fill="#EDF2F4"/>
<path d="M26.7819 6.7491L22.7646 0.5L15.7344 11.6078C14.2166 11.0806 12.5653 11.0806 11.0475 11.6078L9.68222 9.42729H1.55225L6.38749 16.9536C6.1796 17.9899 6.20435 19.0595 6.45993 20.0851C6.71552 21.1107 7.19557 22.0668 7.86546 22.8844C8.53535 23.702 9.37837 24.3608 10.3337 24.8131C11.289 25.2654 12.3328 25.5 13.3898 25.5C14.4468 25.5 15.4906 25.2654 16.446 24.8131C17.4013 24.3608 18.2443 23.702 18.9142 22.8844C19.5841 22.0668 20.0641 21.1107 20.3197 20.0851C20.5753 19.0595 20.6001 17.9899 20.3922 16.9536L26.7819 6.7491ZM13.3909 22.2603C12.6185 22.2603 11.8633 22.0312 11.2211 21.602C10.5788 21.1729 10.0782 20.5629 9.78256 19.8492C9.48695 19.1355 9.4096 18.3502 9.5603 17.5926C9.71101 16.835 10.083 16.1391 10.6292 15.5928C11.1754 15.0466 11.8714 14.6746 12.629 14.5239C13.3866 14.3732 14.1719 14.4506 14.8856 14.7462C15.5993 15.0418 16.2092 15.5424 16.6384 16.1847C17.0676 16.827 17.2966 17.5821 17.2966 18.3546C17.2955 19.3901 16.8836 20.3828 16.1514 21.115C15.4192 21.8472 14.4264 22.2591 13.3909 22.2603Z" fill="#EDF2F4"/>
<path d="M13.3909 20.14C14.377 20.14 15.1764 19.3407 15.1764 18.3546C15.1764 17.3685 14.377 16.5691 13.3909 16.5691C12.4048 16.5691 11.6055 17.3685 11.6055 18.3546C11.6055 19.3407 12.4048 20.14 13.3909 20.14Z" fill="#EDF2F4"/>
</svg>
